<svg width="393" height="245" viewBox="0 0 393 245" fill="none" xmlns="http://www.w3.org/2000/svg">
<path d="M38 5L7 36H0L36 0H38V5Z" fill="#E80504"/>
<path d="M355 239L385 209H393L357 244H355V239Z" fill="#E80504"/>
<path d="M388 206V5H393V206H388Z" fill="#E80504"/>
<path d="M393 5H38V0H393V5Z" fill="#E80504"/>
<path d="M6 240L355 239V244L0 244.5V240H6Z" fill="#E80504"/>
<path d="M0 242V36H7L6.5 242H0Z" fill="#E80504"/>
<path d="M393 209V206H388L385 209H393Z" fill="#E80504"/>
<path d="M36 0H38V5L36 6V0Z" fill="#E80504"/>
</svg>
