<svg width="225" height="63" viewBox="0 0 225 63" fill="none" xmlns="http://www.w3.org/2000/svg">
<path d="M14 0H225V5H14V0Z" fill="#E80504"/>
<path d="M225 0V48.5H224.5L220 47V0H225Z" fill="#E80504"/>
<path d="M1 13L14 0L15 5L5 16L1 13Z" fill="#E80504"/>
<path d="M0 63V13L5 15.3794V63H0Z" fill="#E80504"/>
<path d="M210 63H5.5V58H210V63Z" fill="#E80504"/>
<path d="M225 49L211 63H210V57.5L220 47L225 49Z" fill="#E80504"/>
<path d="M8.5 63H4L3.5 58H8.5V63Z" fill="#E80504"/>
<path d="M14 0L0 13L5 16L15 5L14 0Z" fill="#E80504"/>
<path d="M211 63L225 48.5L220 47L209 58L211 63Z" fill="#E80504"/>
<path d="M225 48V49L223 48.3333L225 48Z" fill="#E80504"/>
<path d="M5 16L16 5L14.5 4.5L5 16Z" fill="#E80504"/>
</svg>
