<svg width="1920" height="992" viewBox="0 0 1920 992" fill="none" xmlns="http://www.w3.org/2000/svg">
<path d="M1916 4V921.981L1848.7 987.231H4V83.3008L94.1807 4H1916Z" stroke="#880000" stroke-width="8"/>
<path fill-rule="evenodd" clip-rule="evenodd" d="M1673.19 976.69H1643.11L1605.55 936.701H1635.63L1673.19 976.69ZM1720.26 976.69H1690.18L1652.62 936.701H1682.7L1720.26 976.69ZM1767.34 976.69H1737.26L1699.69 936.701H1729.78L1767.34 976.69ZM1814.42 976.69H1784.33L1746.77 936.701H1776.85L1814.42 976.69Z" fill="#8B0000"/>
<path fill-rule="evenodd" clip-rule="evenodd" d="M1912.54 761.09V840.343L1901.65 850.603V927.393L1852.28 973.936H1827.99L1817.11 984.196H1746.5L1746.13 991.231H1858.33C1859.28 991.231 1860.24 990.888 1860.97 990.2L1918.91 935.586C1919.58 934.951 1920 934.07 1920 933.099V760.388L1912.54 761.09Z" fill="#800000"/>
<path fill-rule="evenodd" clip-rule="evenodd" d="M87.2033 20.2822H118.471L132.484 8.25258H140.012L139.795 0H79.4087V0.00199314C78.1783 0.00199314 76.949 0.405603 76.0111 1.20884L1.40802 65.2603C0.5386 66.0047 0 67.0381 0 68.1762V189.037L9.61123 188.771V176.952L23.6241 164.923V74.8672L87.2033 20.2822Z" fill="#880000"/>
</svg>
